<svg width="400" height="400" xmlns="http://www.w3.org/2000/svg">
  <circle cx="200" cy="200" r="190" stroke="#ccc" stroke-width="1" fill="none" />
  <g transform="translate(200,200)">
    <line x1="0.00" y1="-170.00" x2="0.00" y2="-190.00" stroke="black" stroke-width="2" />
    <line x1="7.07" y1="-179.86" x2="7.46" y2="-189.85" stroke="black" stroke-width="1" />
    <line x1="14.12" y1="-179.45" x2="14.91" y2="-189.41" stroke="black" stroke-width="1" />
    <line x1="21.16" y1="-178.75" x2="22.33" y2="-188.68" stroke="black" stroke-width="1" />
    <line x1="28.16" y1="-177.78" x2="29.72" y2="-187.66" stroke="black" stroke-width="1" />
    <line x1="35.12" y1="-176.54" x2="37.07" y2="-186.35" stroke="black" stroke-width="1" />
    <line x1="42.02" y1="-175.03" x2="44.35" y2="-184.75" stroke="black" stroke-width="1" />
    <line x1="48.86" y1="-173.24" x2="51.57" y2="-182.87" stroke="black" stroke-width="1" />
    <line x1="55.62" y1="-171.19" x2="58.71" y2="-180.70" stroke="black" stroke-width="1" />
    <line x1="62.30" y1="-168.87" x2="65.76" y2="-178.26" stroke="black" stroke-width="1" />
    <line x1="65.06" y1="-157.06" x2="72.71" y2="-175.54" stroke="black" stroke-width="2" />
    <line x1="75.36" y1="-163.47" x2="79.55" y2="-172.55" stroke="black" stroke-width="1" />
    <line x1="81.72" y1="-160.38" x2="86.26" y2="-169.29" stroke="black" stroke-width="1" />
    <line x1="87.95" y1="-157.05" x2="92.84" y2="-165.77" stroke="black" stroke-width="1" />
    <line x1="94.05" y1="-153.48" x2="99.27" y2="-162.00" stroke="black" stroke-width="1" />
    <line x1="100.00" y1="-149.66" x2="105.56" y2="-157.98" stroke="black" stroke-width="1" />
    <line x1="105.80" y1="-145.62" x2="111.68" y2="-153.71" stroke="black" stroke-width="1" />
    <line x1="111.44" y1="-141.36" x2="117.63" y2="-149.21" stroke="black" stroke-width="1" />
    <line x1="116.90" y1="-136.87" x2="123.40" y2="-144.48" stroke="black" stroke-width="1" />
    <line x1="122.18" y1="-132.18" x2="128.97" y2="-139.52" stroke="black" stroke-width="1" />
    <line x1="120.21" y1="-120.21" x2="134.35" y2="-134.35" stroke="black" stroke-width="2" />
    <line x1="132.18" y1="-122.18" x2="139.52" y2="-128.97" stroke="black" stroke-width="1" />
    <line x1="136.87" y1="-116.90" x2="144.48" y2="-123.40" stroke="black" stroke-width="1" />
    <line x1="141.36" y1="-111.44" x2="149.21" y2="-117.63" stroke="black" stroke-width="1" />
    <line x1="145.62" y1="-105.80" x2="153.71" y2="-111.68" stroke="black" stroke-width="1" />
    <line x1="149.66" y1="-100.00" x2="157.98" y2="-105.56" stroke="black" stroke-width="1" />
    <line x1="153.48" y1="-94.05" x2="162.00" y2="-99.27" stroke="black" stroke-width="1" />
    <line x1="157.05" y1="-87.95" x2="165.77" y2="-92.84" stroke="black" stroke-width="1" />
    <line x1="160.38" y1="-81.72" x2="169.29" y2="-86.26" stroke="black" stroke-width="1" />
    <line x1="163.47" y1="-75.36" x2="172.55" y2="-79.55" stroke="black" stroke-width="1" />
    <line x1="157.06" y1="-65.06" x2="175.54" y2="-72.71" stroke="black" stroke-width="2" />
    <line x1="168.87" y1="-62.30" x2="178.26" y2="-65.76" stroke="black" stroke-width="1" />
    <line x1="171.19" y1="-55.62" x2="180.70" y2="-58.71" stroke="black" stroke-width="1" />
    <line x1="173.24" y1="-48.86" x2="182.87" y2="-51.57" stroke="black" stroke-width="1" />
    <line x1="175.03" y1="-42.02" x2="184.75" y2="-44.35" stroke="black" stroke-width="1" />
    <line x1="176.54" y1="-35.12" x2="186.35" y2="-37.07" stroke="black" stroke-width="1" />
    <line x1="177.78" y1="-28.16" x2="187.66" y2="-29.72" stroke="black" stroke-width="1" />
    <line x1="178.75" y1="-21.16" x2="188.68" y2="-22.33" stroke="black" stroke-width="1" />
    <line x1="179.45" y1="-14.12" x2="189.41" y2="-14.91" stroke="black" stroke-width="1" />
    <line x1="179.86" y1="-7.07" x2="189.85" y2="-7.46" stroke="black" stroke-width="1" />
    <line x1="170.00" y1="-0.00" x2="190.00" y2="-0.00" stroke="black" stroke-width="2" />
    <line x1="179.86" y1="7.07" x2="189.85" y2="7.46" stroke="black" stroke-width="1" />
    <line x1="179.45" y1="14.12" x2="189.41" y2="14.91" stroke="black" stroke-width="1" />
    <line x1="178.75" y1="21.16" x2="188.68" y2="22.33" stroke="black" stroke-width="1" />
    <line x1="177.78" y1="28.16" x2="187.66" y2="29.72" stroke="black" stroke-width="1" />
    <line x1="176.54" y1="35.12" x2="186.35" y2="37.07" stroke="black" stroke-width="1" />
    <line x1="175.03" y1="42.02" x2="184.75" y2="44.35" stroke="black" stroke-width="1" />
    <line x1="173.24" y1="48.86" x2="182.87" y2="51.57" stroke="black" stroke-width="1" />
    <line x1="171.19" y1="55.62" x2="180.70" y2="58.71" stroke="black" stroke-width="1" />
    <line x1="168.87" y1="62.30" x2="178.26" y2="65.76" stroke="black" stroke-width="1" />
    <line x1="157.06" y1="65.06" x2="175.54" y2="72.71" stroke="black" stroke-width="2" />
    <line x1="163.47" y1="75.36" x2="172.55" y2="79.55" stroke="black" stroke-width="1" />
    <line x1="160.38" y1="81.72" x2="169.29" y2="86.26" stroke="black" stroke-width="1" />
    <line x1="157.05" y1="87.95" x2="165.77" y2="92.84" stroke="black" stroke-width="1" />
    <line x1="153.48" y1="94.05" x2="162.00" y2="99.27" stroke="black" stroke-width="1" />
    <line x1="149.66" y1="100.00" x2="157.98" y2="105.56" stroke="black" stroke-width="1" />
    <line x1="145.62" y1="105.80" x2="153.71" y2="111.68" stroke="black" stroke-width="1" />
    <line x1="141.36" y1="111.44" x2="149.21" y2="117.63" stroke="black" stroke-width="1" />
    <line x1="136.87" y1="116.90" x2="144.48" y2="123.40" stroke="black" stroke-width="1" />
    <line x1="132.18" y1="122.18" x2="139.52" y2="128.97" stroke="black" stroke-width="1" />
    <line x1="120.21" y1="120.21" x2="134.35" y2="134.35" stroke="black" stroke-width="2" />
    <line x1="122.18" y1="132.18" x2="128.97" y2="139.52" stroke="black" stroke-width="1" />
    <line x1="116.90" y1="136.87" x2="123.40" y2="144.48" stroke="black" stroke-width="1" />
    <line x1="111.44" y1="141.36" x2="117.63" y2="149.21" stroke="black" stroke-width="1" />
    <line x1="105.80" y1="145.62" x2="111.68" y2="153.71" stroke="black" stroke-width="1" />
    <line x1="100.00" y1="149.66" x2="105.56" y2="157.98" stroke="black" stroke-width="1" />
    <line x1="94.05" y1="153.48" x2="99.27" y2="162.00" stroke="black" stroke-width="1" />
    <line x1="87.95" y1="157.05" x2="92.84" y2="165.77" stroke="black" stroke-width="1" />
    <line x1="81.72" y1="160.38" x2="86.26" y2="169.29" stroke="black" stroke-width="1" />
    <line x1="75.36" y1="163.47" x2="79.55" y2="172.55" stroke="black" stroke-width="1" />
    <line x1="65.06" y1="157.06" x2="72.71" y2="175.54" stroke="black" stroke-width="2" />
    <line x1="62.30" y1="168.87" x2="65.76" y2="178.26" stroke="black" stroke-width="1" />
    <line x1="55.62" y1="171.19" x2="58.71" y2="180.70" stroke="black" stroke-width="1" />
    <line x1="48.86" y1="173.24" x2="51.57" y2="182.87" stroke="black" stroke-width="1" />
    <line x1="42.02" y1="175.03" x2="44.35" y2="184.75" stroke="black" stroke-width="1" />
    <line x1="35.12" y1="176.54" x2="37.07" y2="186.35" stroke="black" stroke-width="1" />
    <line x1="28.16" y1="177.78" x2="29.72" y2="187.66" stroke="black" stroke-width="1" />
    <line x1="21.16" y1="178.75" x2="22.33" y2="188.68" stroke="black" stroke-width="1" />
    <line x1="14.12" y1="179.45" x2="14.91" y2="189.41" stroke="black" stroke-width="1" />
    <line x1="7.07" y1="179.86" x2="7.46" y2="189.85" stroke="black" stroke-width="1" />
    <line x1="0.00" y1="170.00" x2="0.00" y2="190.00" stroke="black" stroke-width="2" />
    <line x1="-7.07" y1="179.86" x2="-7.46" y2="189.85" stroke="black" stroke-width="1" />
    <line x1="-14.12" y1="179.45" x2="-14.91" y2="189.41" stroke="black" stroke-width="1" />
    <line x1="-21.16" y1="178.75" x2="-22.33" y2="188.68" stroke="black" stroke-width="1" />
    <line x1="-28.16" y1="177.78" x2="-29.72" y2="187.66" stroke="black" stroke-width="1" />
    <line x1="-35.12" y1="176.54" x2="-37.07" y2="186.35" stroke="black" stroke-width="1" />
    <line x1="-42.02" y1="175.03" x2="-44.35" y2="184.75" stroke="black" stroke-width="1" />
    <line x1="-48.86" y1="173.24" x2="-51.57" y2="182.87" stroke="black" stroke-width="1" />
    <line x1="-55.62" y1="171.19" x2="-58.71" y2="180.70" stroke="black" stroke-width="1" />
    <line x1="-62.30" y1="168.87" x2="-65.76" y2="178.26" stroke="black" stroke-width="1" />
    <line x1="-65.06" y1="157.06" x2="-72.71" y2="175.54" stroke="black" stroke-width="2" />
    <line x1="-75.36" y1="163.47" x2="-79.55" y2="172.55" stroke="black" stroke-width="1" />
    <line x1="-81.72" y1="160.38" x2="-86.26" y2="169.29" stroke="black" stroke-width="1" />
    <line x1="-87.95" y1="157.05" x2="-92.84" y2="165.77" stroke="black" stroke-width="1" />
    <line x1="-94.05" y1="153.48" x2="-99.27" y2="162.00" stroke="black" stroke-width="1" />
    <line x1="-100.00" y1="149.66" x2="-105.56" y2="157.98" stroke="black" stroke-width="1" />
    <line x1="-105.80" y1="145.62" x2="-111.68" y2="153.71" stroke="black" stroke-width="1" />
    <line x1="-111.44" y1="141.36" x2="-117.63" y2="149.21" stroke="black" stroke-width="1" />
    <line x1="-116.90" y1="136.87" x2="-123.40" y2="144.48" stroke="black" stroke-width="1" />
    <line x1="-122.18" y1="132.18" x2="-128.97" y2="139.52" stroke="black" stroke-width="1" />
    <line x1="-120.21" y1="120.21" x2="-134.35" y2="134.35" stroke="black" stroke-width="2" />
    <line x1="-132.18" y1="122.18" x2="-139.52" y2="128.97" stroke="black" stroke-width="1" />
    <line x1="-136.87" y1="116.90" x2="-144.48" y2="123.40" stroke="black" stroke-width="1" />
    <line x1="-141.36" y1="111.44" x2="-149.21" y2="117.63" stroke="black" stroke-width="1" />
    <line x1="-145.62" y1="105.80" x2="-153.71" y2="111.68" stroke="black" stroke-width="1" />
    <line x1="-149.66" y1="100.00" x2="-157.98" y2="105.56" stroke="black" stroke-width="1" />
    <line x1="-153.48" y1="94.05" x2="-162.00" y2="99.27" stroke="black" stroke-width="1" />
    <line x1="-157.05" y1="87.95" x2="-165.77" y2="92.84" stroke="black" stroke-width="1" />
    <line x1="-160.38" y1="81.72" x2="-169.29" y2="86.26" stroke="black" stroke-width="1" />
    <line x1="-163.47" y1="75.36" x2="-172.55" y2="79.55" stroke="black" stroke-width="1" />
    <line x1="-157.06" y1="65.06" x2="-175.54" y2="72.71" stroke="black" stroke-width="2" />
    <line x1="-168.87" y1="62.30" x2="-178.26" y2="65.76" stroke="black" stroke-width="1" />
    <line x1="-171.19" y1="55.62" x2="-180.70" y2="58.71" stroke="black" stroke-width="1" />
    <line x1="-173.24" y1="48.86" x2="-182.87" y2="51.57" stroke="black" stroke-width="1" />
    <line x1="-175.03" y1="42.02" x2="-184.75" y2="44.35" stroke="black" stroke-width="1" />
    <line x1="-176.54" y1="35.12" x2="-186.35" y2="37.07" stroke="black" stroke-width="1" />
    <line x1="-177.78" y1="28.16" x2="-187.66" y2="29.72" stroke="black" stroke-width="1" />
    <line x1="-178.75" y1="21.16" x2="-188.68" y2="22.33" stroke="black" stroke-width="1" />
    <line x1="-179.45" y1="14.12" x2="-189.41" y2="14.91" stroke="black" stroke-width="1" />
    <line x1="-179.86" y1="7.07" x2="-189.85" y2="7.46" stroke="black" stroke-width="1" />
    <line x1="-170.00" y1="0.00" x2="-190.00" y2="0.00" stroke="black" stroke-width="2" />
    <line x1="-179.86" y1="-7.07" x2="-189.85" y2="-7.46" stroke="black" stroke-width="1" />
    <line x1="-179.45" y1="-14.12" x2="-189.41" y2="-14.91" stroke="black" stroke-width="1" />
    <line x1="-178.75" y1="-21.16" x2="-188.68" y2="-22.33" stroke="black" stroke-width="1" />
    <line x1="-177.78" y1="-28.16" x2="-187.66" y2="-29.72" stroke="black" stroke-width="1" />
    <line x1="-176.54" y1="-35.12" x2="-186.35" y2="-37.07" stroke="black" stroke-width="1" />
    <line x1="-175.03" y1="-42.02" x2="-184.75" y2="-44.35" stroke="black" stroke-width="1" />
    <line x1="-173.24" y1="-48.86" x2="-182.87" y2="-51.57" stroke="black" stroke-width="1" />
    <line x1="-171.19" y1="-55.62" x2="-180.70" y2="-58.71" stroke="black" stroke-width="1" />
    <line x1="-168.87" y1="-62.30" x2="-178.26" y2="-65.76" stroke="black" stroke-width="1" />
    <line x1="-157.06" y1="-65.06" x2="-175.54" y2="-72.71" stroke="black" stroke-width="2" />
    <line x1="-163.47" y1="-75.36" x2="-172.55" y2="-79.55" stroke="black" stroke-width="1" />
    <line x1="-160.38" y1="-81.72" x2="-169.29" y2="-86.26" stroke="black" stroke-width="1" />
    <line x1="-157.05" y1="-87.95" x2="-165.77" y2="-92.84" stroke="black" stroke-width="1" />
    <line x1="-153.48" y1="-94.05" x2="-162.00" y2="-99.27" stroke="black" stroke-width="1" />
    <line x1="-149.66" y1="-100.00" x2="-157.98" y2="-105.56" stroke="black" stroke-width="1" />
    <line x1="-145.62" y1="-105.80" x2="-153.71" y2="-111.68" stroke="black" stroke-width="1" />
    <line x1="-141.36" y1="-111.44" x2="-149.21" y2="-117.63" stroke="black" stroke-width="1" />
    <line x1="-136.87" y1="-116.90" x2="-144.48" y2="-123.40" stroke="black" stroke-width="1" />
    <line x1="-132.18" y1="-122.18" x2="-139.52" y2="-128.97" stroke="black" stroke-width="1" />
    <line x1="-120.21" y1="-120.21" x2="-134.35" y2="-134.35" stroke="black" stroke-width="2" />
    <line x1="-122.18" y1="-132.18" x2="-128.97" y2="-139.52" stroke="black" stroke-width="1" />
    <line x1="-116.90" y1="-136.87" x2="-123.40" y2="-144.48" stroke="black" stroke-width="1" />
    <line x1="-111.44" y1="-141.36" x2="-117.63" y2="-149.21" stroke="black" stroke-width="1" />
    <line x1="-105.80" y1="-145.62" x2="-111.68" y2="-153.71" stroke="black" stroke-width="1" />
    <line x1="-100.00" y1="-149.66" x2="-105.56" y2="-157.98" stroke="black" stroke-width="1" />
    <line x1="-94.05" y1="-153.48" x2="-99.27" y2="-162.00" stroke="black" stroke-width="1" />
    <line x1="-87.95" y1="-157.05" x2="-92.84" y2="-165.77" stroke="black" stroke-width="1" />
    <line x1="-81.72" y1="-160.38" x2="-86.26" y2="-169.29" stroke="black" stroke-width="1" />
    <line x1="-75.36" y1="-163.47" x2="-79.55" y2="-172.55" stroke="black" stroke-width="1" />
    <line x1="-65.06" y1="-157.06" x2="-72.71" y2="-175.54" stroke="black" stroke-width="2" />
    <line x1="-62.30" y1="-168.87" x2="-65.76" y2="-178.26" stroke="black" stroke-width="1" />
    <line x1="-55.62" y1="-171.19" x2="-58.71" y2="-180.70" stroke="black" stroke-width="1" />
    <line x1="-48.86" y1="-173.24" x2="-51.57" y2="-182.87" stroke="black" stroke-width="1" />
    <line x1="-42.02" y1="-175.03" x2="-44.35" y2="-184.75" stroke="black" stroke-width="1" />
    <line x1="-35.12" y1="-176.54" x2="-37.07" y2="-186.35" stroke="black" stroke-width="1" />
    <line x1="-28.16" y1="-177.78" x2="-29.72" y2="-187.66" stroke="black" stroke-width="1" />
    <line x1="-21.16" y1="-178.75" x2="-22.33" y2="-188.68" stroke="black" stroke-width="1" />
    <line x1="-14.12" y1="-179.45" x2="-14.91" y2="-189.41" stroke="black" stroke-width="1" />
    <line x1="-7.07" y1="-179.86" x2="-7.46" y2="-189.85" stroke="black" stroke-width="1" />
  </g>
</svg>